<svg width="40" height="40" viewBox="0 0 40 40" fill="none" xmlns="http://www.w3.org/2000/svg">
<rect width="40" height="40" fill="white"/>
<path d="M1.60444 5.01314H3.68056C4.00906 5.01314 4.285 5.27594 4.285 5.61758V33.3956C4.285 33.7241 4.0222 34 3.68056 34H1.60444C1.27594 34 1 33.7372 1 33.3956V5.60444C1 5.27594 1.2628 5 1.60444 5V5.01314Z" fill="black" stroke="black" stroke-miterlimit="10"/>
<path d="M15.0468 5.02628H17.1229C17.3068 5.01314 17.4777 5.09198 17.5959 5.23652L35.6766 28.2315V5.60444C35.6766 5.27594 35.9394 5 36.281 5H38.2783C38.6068 5 38.8827 5.2628 38.8827 5.60444V33.3824C38.8827 33.7109 38.6199 33.9869 38.2783 33.9869H36.557C36.373 33.9869 36.2022 33.908 36.0839 33.7635L17.5434 10.2297V33.3956C17.5434 33.7241 17.2806 34 16.9389 34H14.9416C14.6131 34 14.3372 33.7372 14.3372 33.3956V5.61758C14.3372 5.28908 14.6 5.01314 14.9416 5.01314H15.0468V5.02628Z" fill="black" stroke="black" stroke-miterlimit="10"/>
</svg>
